<?xml version="1.0" standalone="no"?>
<!DOCTYPE svg PUBLIC "-//W3C//DTD SVG 20010904//EN"
 "http://www.w3.org/TR/2001/REC-SVG-20010904/DTD/svg10.dtd">
<svg version="1.0" xmlns="http://www.w3.org/2000/svg"
 width="1024.000000pt" height="1024.000000pt" viewBox="0 0 1024.000000 1024.000000"
 preserveAspectRatio="xMidYMid meet">

<g transform="translate(0.000000,1024.000000) scale(0.100000,-0.100000)"
fill="#000000" stroke="none">
<path d="M0 5120 l0 -5120 5120 0 5120 0 0 5120 0 5120 -5120 0 -5120 0 0
-5120z m5598 4176 c261 -35 448 -76 677 -148 874 -273 1612 -857 2074 -1641
255 -434 420 -961 461 -1471 13 -169 13 -473 -1 -611 l-11 -110 -156 -157
c-86 -87 -158 -156 -159 -154 -2 2 10 87 27 190 42 261 50 344 50 566 0 287
-32 523 -106 795 -47 171 -154 457 -174 463 -6 2 -7 9 -4 14 4 6 2 8 -3 5 -6
-4 -14 0 -17 9 -3 9 -2 12 4 9 6 -4 3 9 -6 29 -10 19 -21 33 -26 30 -5 -3 -9
0 -7 7 3 28 -1 40 -13 33 -8 -5 -9 -2 -5 10 4 9 3 14 -2 11 -5 -3 -12 5 -14
17 -4 21 -4 21 -6 -3 0 -14 -10 -34 -21 -44 -24 -22 -26 -35 -4 -35 8 0 12 5
9 10 -3 6 -1 10 4 10 6 0 11 8 11 18 1 16 1 16 11 -1 6 -9 15 -14 21 -11 7 5
8 2 4 -5 -5 -7 -14 -10 -21 -7 -16 6 -28 -35 -15 -48 7 -7 10 -4 10 7 0 9 5
17 11 17 15 0 1 -42 -22 -62 -10 -9 -19 -21 -19 -27 0 -6 -7 -8 -15 -5 -8 4
-15 1 -15 -6 0 -6 7 -18 15 -26 29 -29 19 -52 -25 -56 -42 -4 -48 0 -28 20 8
8 8 12 1 12 -16 0 -25 -29 -14 -47 6 -11 10 -12 15 -4 12 18 44 12 60 -11 l16
-22 0 22 c0 27 16 29 23 3 7 -26 0 -31 -43 -31 -22 0 -43 -7 -50 -15 -11 -14
-10 -14 11 -7 27 10 52 5 43 -9 -10 -17 9 -9 22 8 7 10 16 14 21 9 4 -5 2 -11
-5 -13 -6 -3 -10 -9 -6 -14 3 -5 -6 -9 -21 -9 -20 0 -27 -6 -31 -30 -6 -25 -9
-28 -25 -19 -15 8 -19 6 -19 -9 0 -10 5 -23 12 -30 9 -9 9 -12 0 -12 -7 0 -12
4 -12 9 0 5 -8 7 -19 4 -10 -3 -22 1 -26 8 -6 9 -2 11 14 6 14 -3 21 -1 18 6
-2 7 -12 12 -23 12 -10 0 -20 8 -22 18 -2 9 -10 17 -19 17 -13 0 -13 -3 -3
-15 7 -8 9 -16 4 -16 -5 -1 -14 -2 -20 -3 -16 -2 -46 -35 -40 -44 3 -5 1 -22
-4 -38 -6 -23 -9 -25 -11 -9 -7 62 -5 76 12 86 27 14 23 27 -6 21 -15 -2 -25
-11 -25 -22 0 -10 -7 -24 -17 -31 -15 -13 -15 -12 -2 8 18 30 4 41 -22 17 -20
-18 -21 -18 -35 0 -13 19 -14 19 -21 0 -9 -25 -28 -44 -44 -44 -10 0 -10 3 -1
12 16 16 15 29 -2 22 -7 -3 -16 2 -19 10 -8 20 -31 20 -47 1 -13 -16 -40 -21
-40 -7 0 4 10 12 23 17 12 6 21 17 19 25 -2 8 0 12 3 8 4 -4 16 -3 26 3 13 6
19 6 19 -1 0 -5 -5 -10 -12 -10 -6 0 -8 -3 -5 -6 12 -13 37 17 28 34 -15 26
-1 53 23 46 16 -5 18 -4 9 6 -7 8 -21 10 -40 5 -15 -4 -22 -10 -15 -12 6 -3
12 -9 12 -14 0 -11 -54 0 -58 13 -5 11 -22 10 -22 -2 0 -5 19 -14 43 -21 35
-10 39 -13 22 -20 -11 -4 -35 -8 -52 -8 -32 -1 -49 -21 -18 -21 8 0 15 -4 15
-9 0 -5 -9 -7 -20 -4 -11 3 -20 0 -20 -6 0 -6 -5 -11 -11 -11 -5 0 -7 6 -3 12
14 23 11 48 -5 48 -20 0 -52 -20 -33 -20 8 0 10 -8 7 -23 -5 -18 -1 -26 17
-35 21 -11 22 -12 1 -7 -27 7 -39 -11 -16 -24 17 -10 17 -10 -1 -11 -15 0 -16
-3 -6 -15 11 -13 10 -14 -5 -9 -16 6 -17 19 -13 127 2 66 2 113 -1 104 -5 -12
-12 -7 -30 20 -20 31 -21 35 -5 29 10 -4 15 -4 11 1 -5 4 -22 9 -40 10 -18 2
-39 4 -47 5 -27 4 -115 -15 -122 -26 -6 -8 -8 -8 -8 1 0 6 7 19 16 28 13 12
14 19 5 28 -8 8 -11 8 -11 -1 0 -7 -13 -12 -30 -12 -30 0 -41 15 -18 22 9 3 9
6 -1 12 -8 5 -14 1 -18 -13 -5 -20 -20 -27 -70 -34 -12 -2 -25 -6 -29 -10 -8
-8 -24 1 -24 14 0 5 9 9 19 9 11 0 22 6 25 13 5 10 7 10 12 0 7 -15 34 -17 34
-3 0 6 -7 10 -15 10 -19 0 -19 19 0 26 8 4 12 10 9 16 -4 5 -11 5 -19 -2 -9
-7 -21 -7 -39 0 -34 12 -36 12 -36 0 0 -5 11 -10 25 -10 23 0 25 -2 14 -21 -8
-17 -13 -19 -19 -9 -5 9 -31 14 -67 15 -32 1 -64 4 -70 8 -7 5 -14 -11 -19
-45 l-7 -53 -12 50 c-7 28 -13 43 -14 35 -1 -13 -3 -13 -10 -1 -8 12 -11 9
-16 -12 -7 -28 -35 -59 -35 -38 0 6 -7 11 -15 11 -16 0 -20 12 -8 23 3 4 12
-1 19 -11 8 -9 14 -12 14 -5 0 6 -4 15 -10 18 -14 9 -13 42 2 47 8 3 8 7 2 11
-6 3 -20 -1 -32 -9 -17 -12 -21 -21 -15 -42 6 -24 5 -26 -10 -13 -10 7 -17 20
-17 27 0 10 -13 13 -49 11 -27 -1 -47 -5 -45 -8 2 -4 -3 -10 -12 -13 -8 -3
-13 -10 -9 -15 3 -5 1 -12 -5 -16 -6 -4 -8 -11 -5 -16 7 -11 26 -12 23 -1 -4
15 14 52 25 52 7 0 23 3 37 6 25 5 25 5 5 -11 -20 -17 -19 -17 8 -11 29 7 35
-2 15 -23 -11 -11 -9 -12 7 -7 11 3 27 1 35 -4 11 -7 4 -9 -23 -6 -21 1 -43 9
-48 17 -12 20 -11 5 2 -24 10 -21 15 -23 55 -17 25 4 47 3 50 -2 3 -4 -2 -8
-10 -8 -9 0 -16 -4 -16 -8 0 -11 -70 -3 -97 10 -29 14 -39 4 -25 -24 6 -13 11
-17 11 -10 1 6 6 12 11 12 16 0 12 -17 -6 -24 -11 -4 -19 4 -29 28 -17 40 -50
60 -40 23 15 -51 16 -57 11 -57 -3 0 -10 19 -16 42 -9 31 -14 38 -21 27 -10
-16 -12 -8 -3 16 5 13 9 14 15 4 4 -8 6 3 5 24 -2 21 -7 41 -11 45 -4 4 -6 0
-4 -8 4 -20 -10 -60 -21 -60 -15 0 -20 32 -8 49 11 14 11 14 -3 4 -13 -11 -18
-9 -26 10 -11 24 -12 43 -1 40 4 -2 5 4 1 12 -4 12 -9 13 -18 5 -17 -14 -38
20 -29 47 4 13 3 14 -4 5 -7 -10 -14 -6 -29 20 -11 18 -63 104 -116 192 -54
87 -97 159 -97 161 0 2 -52 88 -116 192 -114 184 -323 534 -372 623 -14 25
-28 50 -32 55 -29 38 -350 635 -350 651 0 7 -10 14 -22 18 -30 8 -557 8 -596
0 -22 -4 -34 -15 -43 -38 -8 -17 -32 -65 -54 -106 -23 -41 -57 -104 -77 -140
-163 -302 -680 -1171 -733 -1233 -10 -12 -19 -24 -18 -27 1 -5 -74 -133 -135
-229 -26 -41 -36 -50 -44 -40 -8 11 -9 10 -4 -3 7 -24 -3 -50 -17 -41 -6 4 -8
0 -4 -10 4 -12 1 -17 -9 -17 -10 0 -14 6 -11 15 4 8 2 17 -3 20 -14 8 -12 -22
1 -48 12 -22 12 -22 -9 -4 -11 10 -29 17 -39 14 -15 -4 -15 -5 3 -6 32 -2 38
-28 8 -35 -14 -4 -22 -11 -18 -17 4 -8 9 -7 15 2 7 12 9 12 9 0 0 -11 3 -11
18 0 15 13 16 12 3 -3 -7 -10 -18 -15 -24 -11 -7 4 -8 0 -3 -12 6 -16 4 -16
-11 -4 -10 8 -21 18 -25 24 -4 5 -10 6 -14 3 -3 -4 5 -18 20 -31 l25 -24 -20
-22 c-11 -12 -24 -19 -30 -16 -5 4 -9 -2 -9 -11 0 -10 -3 -15 -6 -11 -4 3 -3
14 1 24 4 10 9 27 10 39 3 17 -1 20 -27 16 -25 -4 -28 -6 -14 -14 20 -11 21
-28 1 -28 -17 0 -20 -16 -5 -25 6 -3 10 -12 10 -18 0 -7 -7 -3 -15 7 -17 23
-30 16 -21 -11 3 -10 6 -22 7 -28 0 -5 8 -18 17 -28 15 -17 15 -17 -1 -11 -16
6 -22 -5 -18 -31 1 -5 -6 -2 -15 7 -16 15 -16 21 -4 43 10 18 11 28 3 36 -6 6
-9 18 -6 25 3 8 -1 14 -11 14 -9 0 -16 -4 -16 -10 0 -5 -11 -10 -25 -10 -14 0
-25 5 -25 10 0 6 3 9 8 9 19 -3 33 2 28 10 -3 5 5 11 19 13 16 4 25 0 28 -11
4 -14 5 -14 6 1 0 9 -6 24 -15 32 -16 16 -10 41 7 31 5 -4 9 4 8 17 0 13 -3
17 -6 11 -2 -7 -11 -13 -19 -13 -8 0 -14 -9 -14 -20 0 -11 -4 -20 -10 -20 -16
0 -12 46 5 60 16 13 12 30 -7 30 -6 0 -9 -3 -6 -6 4 -3 1 -20 -6 -37 -6 -18
-11 -44 -10 -58 1 -21 -6 -29 -33 -42 -31 -14 -34 -14 -31 1 2 10 13 18 26 20
22 3 30 26 13 37 -11 6 -10 45 1 45 4 0 8 5 8 12 0 9 -3 9 -12 0 -13 -13 -72
-17 -65 -4 3 4 -16 5 -41 3 -50 -4 -49 -6 11 -16 29 -5 37 -10 33 -22 -9 -22
3 -36 20 -22 7 6 11 15 8 20 -3 5 0 9 5 9 6 0 11 -9 11 -20 0 -11 -6 -20 -14
-20 -7 0 -21 -10 -29 -22 -15 -22 -16 -22 -15 -3 3 42 -2 66 -12 60 -6 -4 -8
-15 -5 -26 4 -11 2 -19 -4 -19 -6 0 -11 14 -11 31 0 28 -3 31 -25 27 -22 -5
-25 -2 -23 21 2 18 -2 26 -12 26 -8 0 -15 -7 -15 -15 0 -15 -33 -31 -48 -22
-5 2 -5 22 -2 43 6 35 5 39 -14 39 -17 0 -21 -7 -23 -37 l-1 -38 -7 45 c-6 37
-7 39 -9 15 -2 -26 -4 -27 -10 -10 -5 11 -7 22 -6 25 2 3 -17 6 -41 6 -45 2
-45 1 -18 -13 15 -7 34 -11 41 -9 7 3 13 1 13 -4 0 -6 -4 -10 -9 -10 -5 0 -22
-3 -38 -6 -25 -5 -31 -2 -38 18 -6 18 -8 20 -12 6 -3 -14 -9 -15 -29 -8 -34
13 -37 13 -31 -4 4 -10 1 -13 -9 -9 -33 12 2 39 38 27 12 -4 18 -1 16 8 -4 20
-21 28 -35 16 -10 -8 -13 -6 -13 6 0 9 5 16 10 16 6 0 10 5 10 11 0 6 -8 8
-19 4 -27 -8 -37 13 -15 31 18 14 18 14 -3 4 -27 -13 -29 -8 -7 14 22 23 22
421 0 464 -31 61 -126 78 -186 34 -44 -33 -51 -78 -48 -294 2 -108 0 -192 -3
-186 -4 5 -9 -2 -13 -17 -4 -15 -5 -30 -1 -33 3 -3 5 1 5 9 0 12 2 11 10 -1 9
-13 11 -13 20 0 7 11 9 5 7 -22 -3 -39 1 -46 20 -27 8 8 16 8 30 0 17 -10 16
-10 -5 -11 -14 0 -21 -4 -17 -11 5 -7 -5 -9 -27 -6 -18 2 -25 2 -15 0 24 -6
21 -17 -8 -33 -14 -7 -25 -20 -25 -28 0 -12 7 -9 26 9 18 17 23 19 18 6 -3 -9
-2 -17 4 -17 5 0 12 9 15 20 3 11 10 20 16 20 13 0 -7 -49 -21 -51 -4 -1 -12
-2 -17 -3 -18 -2 -24 -16 -8 -16 10 0 17 -7 17 -16 0 -8 4 -13 8 -10 4 2 13
-4 20 -15 10 -16 9 -19 -3 -19 -8 0 -15 -5 -15 -11 0 -5 -5 -7 -11 -4 -6 4 -9
0 -7 -11 2 -13 -4 -20 -19 -22 -14 -2 -23 -10 -23 -21 0 -10 -17 -26 -41 -39
-33 -18 -40 -19 -35 -6 3 8 6 20 6 26 0 5 12 8 28 6 22 -2 26 0 24 17 -2 11
-9 24 -15 28 -9 6 -9 10 1 14 6 2 10 9 6 14 -3 5 -12 2 -20 -6 -9 -8 -19 -13
-24 -10 -5 3 -12 1 -15 -5 -4 -6 -15 -8 -25 -5 -11 4 -20 -1 -24 -11 -9 -25
-3 -26 39 -9 20 9 39 14 42 11 8 -8 -7 -26 -21 -26 -20 0 -40 -27 -26 -35 6
-3 8 -11 5 -16 -10 -15 -23 -10 -30 12 -9 27 -24 13 -41 -38 -10 -28 -10 -39
-1 -45 6 -4 9 -9 6 -12 -8 -8 -49 23 -49 37 0 7 4 6 10 -3 9 -13 10 -13 10 0
0 8 7 28 15 43 17 32 11 53 -19 69 -20 11 -20 10 -3 -9 11 -13 15 -27 10 -39
-6 -17 -8 -16 -13 6 -5 21 -11 25 -41 22 -21 -1 -29 1 -21 6 8 5 11 20 8 35
-2 15 0 30 6 33 7 5 8 2 3 -6 -6 -10 -3 -12 14 -7 15 3 21 1 18 -6 -3 -7 -9
-11 -15 -10 -6 2 -9 -4 -5 -13 4 -12 8 -11 21 7 14 20 14 23 -6 40 -21 17 -31
36 -13 25 5 -3 12 1 15 10 4 9 2 13 -5 8 -7 -4 -9 0 -6 12 17 62 18 69 7 54
-9 -13 -11 -12 -8 5 2 13 -9 31 -31 50 -29 25 -43 30 -88 30 -50 0 -57 -3 -88
-36 -25 -28 -36 -34 -45 -25 -10 8 -10 6 0 -13 6 -13 10 -36 8 -52 -3 -15 0
-25 5 -22 5 3 6 -9 4 -25 -4 -22 -2 -29 8 -26 9 4 13 -4 12 -27 -1 -21 3 -33
13 -36 12 -4 12 -3 2 5 -9 6 2 9 35 9 26 0 59 3 73 7 16 5 13 1 -11 -12 -20
-11 -46 -18 -60 -15 -13 2 -33 -3 -44 -11 -18 -14 -18 -15 -2 -16 22 0 32 4
30 11 -1 3 21 6 49 5 50 -1 51 -2 53 -33 2 -18 -1 -33 -6 -33 -5 0 -9 11 -9
25 0 14 -4 25 -10 25 -5 0 -7 -7 -4 -15 4 -8 1 -15 -5 -15 -6 0 -11 7 -11 15
0 18 -39 20 -41 3 -1 -7 -1 -21 0 -30 2 -13 -5 -18 -23 -18 -27 0 -35 15 -13
23 6 3 0 6 -15 6 -28 1 -34 -23 -9 -38 9 -6 6 -10 -11 -16 l-23 -8 23 -4 c25
-5 29 -18 7 -27 -19 -7 -20 -36 -1 -36 15 0 26 21 26 51 0 10 3 19 8 19 4 0
18 3 32 6 l25 6 -26 -23 c-14 -13 -24 -30 -22 -36 3 -7 0 -13 -6 -13 -6 0 -10
-6 -8 -12 1 -7 -4 -12 -11 -10 -7 1 -17 -9 -22 -24 -6 -14 -15 -22 -21 -18 -8
4 -8 9 0 17 17 17 14 40 -5 33 -9 -3 -30 6 -50 22 -33 27 -44 55 -24 67 6 3
10 15 10 26 0 16 -5 18 -24 13 -21 -5 -24 -3 -19 16 3 12 13 25 22 28 9 4 17
13 19 20 1 8 -2 11 -8 7 -5 -3 -10 -1 -10 5 0 6 6 13 14 16 8 3 12 13 9 25 -5
16 -8 18 -14 7 -6 -9 -9 -7 -9 10 0 12 -4 22 -10 22 -5 0 -10 5 -10 11 0 5 5
7 10 4 6 -4 10 12 10 39 0 29 -4 46 -12 46 -9 0 -8 3 1 13 11 10 14 10 18 0 3
-7 12 -13 20 -13 11 0 13 4 6 13 -16 20 -15 87 1 81 7 -3 16 1 19 8 3 10 -3
13 -22 12 -14 -1 -27 -3 -28 -3 -1 -1 2 -16 7 -33 9 -30 8 -31 -5 -14 -17 23
-14 25 -51 -38 -19 -34 -24 -51 -16 -54 7 -2 12 -8 12 -13 0 -4 -6 -6 -13 -3
-31 11 -179 -365 -236 -597 -72 -297 -94 -476 -94 -764 0 -292 28 -544 80
-719 3 -10 1 -17 -5 -15 -17 7 -283 292 -297 319 -17 34 -35 258 -35 444 1
1089 531 2131 1425 2802 527 396 1185 655 1840 723 55 6 116 13 135 15 85 10
631 -3 738 -18z m-158 -1118 c284 -572 373 -746 550 -1078 80 -150 117 -218
235 -435 21 -38 76 -142 122 -230 47 -88 93 -173 103 -190 9 -16 39 -70 65
-120 26 -49 60 -112 75 -140 19 -33 28 -62 26 -85 -1 -19 8 -62 21 -95 23 -58
91 -324 91 -355 0 -8 2 -50 5 -92 3 -43 1 -78 -4 -78 -5 0 -9 11 -9 25 0 14
-4 25 -8 25 -5 0 -7 -12 -5 -27 5 -38 -37 -70 -66 -51 -17 11 -23 10 -34 -6
-11 -14 -16 -16 -22 -6 -6 10 -9 9 -16 -1 -6 -10 -9 -7 -9 11 -1 79 -70 359
-125 505 -14 39 -29 78 -32 88 -6 19 -43 24 -43 6 0 -6 -9 -9 -20 -6 -13 3
-20 0 -20 -10 0 -9 -6 -13 -15 -9 -8 3 -14 1 -12 -5 1 -5 -11 -17 -28 -27 -40
-23 -46 -33 -39 -61 5 -21 3 -23 -11 -11 -8 7 -19 10 -23 6 -4 -4 2 -12 13
-18 19 -11 19 -11 0 -20 -15 -6 -13 -7 8 -3 l29 6 -7 -43 c-7 -40 -18 -57 -39
-58 -5 0 -3 6 3 13 13 16 5 27 -21 27 -10 0 -18 5 -18 11 0 7 -10 9 -25 5 -21
-5 -25 -3 -25 15 0 14 -5 19 -14 16 -8 -3 -24 5 -37 19 -24 26 -68 31 -114 14
-14 -5 -24 -6 -21 -1 4 5 -3 7 -13 4 -11 -3 -27 -22 -35 -44 -9 -21 -20 -39
-26 -39 -5 0 -7 7 -4 15 4 10 0 15 -15 15 -24 0 -27 -10 -8 -29 10 -10 6 -11
-18 -6 -30 7 -63 17 -100 31 -11 4 -23 8 -27 8 -3 1 -10 4 -14 9 -12 12 -24 8
-24 -8 0 -10 10 -15 30 -15 34 0 38 -11 13 -31 -11 -10 -14 -10 -9 -1 5 8 -1
12 -23 12 -16 0 -34 7 -38 15 -8 13 -14 12 -46 -5 -34 -18 -39 -19 -53 -5 -18
18 -27 18 -74 5 -28 -8 -37 -7 -46 5 -7 9 -18 13 -28 9 -12 -5 -19 0 -23 15
-8 30 -31 27 -29 -4 1 -24 7 -29 34 -26 6 1 12 -2 12 -7 0 -5 10 -13 23 -17
20 -6 20 -8 3 -12 -10 -3 -23 0 -29 6 -13 13 -47 15 -47 2 0 -5 6 -12 13 -14
6 -3 2 -6 -9 -6 -17 -1 -20 4 -17 24 3 15 -1 31 -11 41 -16 15 -17 14 -11 -12
6 -25 5 -27 -7 -13 -20 25 -55 33 -62 14 -7 -19 -26 -20 -26 0 0 19 -7 19 -26
1 -18 -19 -18 -32 2 -40 19 -7 64 3 64 15 0 5 7 9 15 9 8 0 15 -4 15 -10 0 -5
-6 -10 -14 -10 -7 0 -19 -7 -26 -15 -14 -17 -65 -21 -55 -5 3 6 0 10 -9 10 -8
0 -16 -5 -18 -12 -3 -7 -10 -8 -17 -4 -11 7 -11 10 0 17 11 7 12 12 2 29 -7
11 -13 27 -13 35 0 32 -16 13 -17 -21 -1 -19 -3 -38 -6 -41 -10 -9 -27 8 -27
28 0 16 -3 18 -20 9 -10 -5 -34 -9 -52 -8 -23 2 -32 -1 -30 -10 1 -8 -7 -16
-18 -19 -11 -3 -18 -9 -15 -13 7 -12 -13 -23 -26 -14 -8 4 -7 9 2 15 10 6 11
9 2 9 -7 0 -13 11 -13 24 0 29 -17 43 -32 28 -8 -8 -8 -15 0 -24 6 -8 8 -27 3
-48 -4 -22 -10 -30 -15 -22 -4 7 -4 21 -1 32 5 15 2 20 -10 20 -11 0 -15 -5
-11 -15 6 -18 -2 -45 -15 -45 -4 0 -6 24 -4 53 2 28 2 44 -1 35 -8 -25 -24
-22 -24 4 0 17 -3 19 -12 10 -10 -10 -10 -17 0 -32 15 -24 16 -60 2 -60 -5 0
-10 9 -10 20 0 24 -15 26 -24 3 -6 -14 -8 -14 -20 3 -11 15 -17 16 -29 6 -8
-7 -17 -9 -19 -4 -1 5 -18 13 -35 17 -27 5 -33 4 -33 -10 0 -12 5 -15 16 -11
9 3 25 -1 37 -9 19 -14 17 -20 -7 -16 -5 1 -6 -5 -2 -14 3 -9 6 -22 6 -28 0
-8 4 -7 12 1 7 7 16 12 22 12 24 0 -15 -23 -43 -25 -27 -2 -31 0 -26 16 5 14
2 17 -8 13 -8 -3 -21 6 -31 21 -10 15 -33 44 -53 65 -19 22 -32 44 -28 50 4 6
2 9 -3 8 -5 -2 -26 16 -48 38 -21 23 -51 49 -66 59 -15 9 -25 21 -22 26 3 5
-2 6 -11 3 -8 -4 -22 -1 -30 6 -8 7 -40 10 -78 9 -35 -1 -70 1 -77 6 -9 5 -11
4 -6 -3 4 -7 -10 -22 -35 -38 -23 -14 -53 -39 -66 -55 -15 -18 -30 -26 -41
-23 -15 5 -15 4 -2 -5 13 -10 13 -13 -2 -21 -9 -6 -15 -17 -12 -24 3 -8 0 -17
-7 -22 -8 -4 -10 -3 -5 4 4 7 3 20 -3 29 -7 14 -9 10 -7 -19 2 -21 0 -35 -5
-32 -4 2 -13 -5 -19 -16 -7 -12 -7 -20 -1 -20 6 0 6 -11 -1 -30 l-10 -30 -18
22 c-24 32 -25 42 -1 48 15 4 18 9 11 20 -8 13 -13 13 -41 -3 -33 -18 -51 -15
-42 8 3 8 0 15 -6 15 -6 0 -11 -9 -11 -20 0 -12 -7 -20 -17 -20 -21 0 -55 20
-35 20 6 0 12 4 12 8 0 5 -7 9 -15 9 -9 0 -17 -14 -21 -36 -4 -20 -11 -41 -16
-48 -5 -7 -5 -14 2 -18 5 -3 10 2 11 12 0 14 2 15 6 3 3 -8 12 -20 19 -26 13
-10 12 -13 -1 -18 -9 -3 -13 -2 -10 3 3 5 1 13 -5 16 -6 4 -16 -6 -23 -24 -6
-17 -17 -31 -23 -31 -7 0 -19 -40 -30 -92 -18 -93 -25 -320 -14 -465 2 -35 0
-67 -6 -73 -5 -5 -25 -11 -44 -12 -31 -3 -37 1 -52 33 -22 44 -41 254 -32 354
3 39 12 119 20 178 10 74 11 114 4 127 -13 25 -13 63 0 55 6 -4 8 -15 5 -25
-3 -10 -2 -21 3 -24 10 -6 26 73 17 82 -3 3 -5 -6 -6 -19 0 -22 -1 -22 -8 -4
-5 11 -4 28 1 38 5 10 14 46 19 80 20 128 46 187 264 592 18 33 145 267 282
520 319 588 347 642 705 1358 164 328 303 597 308 597 6 0 141 -262 300 -582z
m-2520 -938 c0 -5 -4 -10 -10 -10 -5 0 -10 5 -10 10 0 6 5 10 10 10 6 0 10 -4
10 -10z m-92 -17 c-10 -2 -26 -2 -35 0 -10 3 -2 5 17 5 19 0 27 -2 18 -5z
m102 -13 c0 -5 -2 -10 -4 -10 -3 0 -8 5 -11 10 -3 6 -1 10 4 10 6 0 11 -4 11
-10z m-825 -21 c-10 -15 -25 -10 -19 6 4 8 10 12 15 9 5 -3 7 -10 4 -15z m-28
-62 c2 -12 8 -23 13 -25 6 -2 10 -9 10 -15 0 -22 -29 18 -34 47 -3 16 -2 26 1
22 4 -4 8 -17 10 -29z m1105 -2 c-2 -19 -6 -35 -8 -35 -2 0 -4 16 -4 35 0 19
4 35 8 35 4 0 6 -16 4 -35z m-301 -8 c-13 -13 -26 -3 -16 12 3 6 11 8 17 5 6
-4 6 -10 -1 -17z m134 13 c-3 -5 -10 -10 -16 -10 -5 0 -9 5 -9 10 0 6 7 10 16
10 8 0 12 -4 9 -10z m109 -5 c3 -9 0 -15 -9 -15 -16 0 -27 14 -18 24 10 10 21
7 27 -9z m-334 -5 c0 -5 -5 -10 -11 -10 -5 0 -7 5 -4 10 3 6 8 10 11 10 2 0 4
-4 4 -10z m190 -5 c0 -8 -4 -15 -10 -15 -5 0 -10 7 -10 15 0 8 5 15 10 15 6 0
10 -7 10 -15z m44 -19 c-8 -21 -34 -21 -34 0 0 10 6 14 15 10 8 -3 15 0 15 6
0 6 2 9 5 6 3 -3 3 -13 -1 -22z m54 -3 c2 -7 -4 -13 -13 -13 -9 0 -14 4 -11 9
4 5 0 12 -6 15 -7 3 -4 5 6 3 11 -1 21 -8 24 -14z m45 -8 c-3 -9 -8 -14 -10
-11 -3 3 -2 9 2 15 9 16 15 13 8 -4z m-65 -29 c12 -3 12 -4 -3 -3 -11 1 -20 9
-21 17 0 8 1 10 3 3 2 -6 12 -14 21 -17z m192 14 c0 -15 -7 -20 -25 -20 -24 0
-24 1 -8 20 10 11 21 20 25 20 5 0 8 -9 8 -20z m-1173 -5 c0 -8 -4 -12 -9 -9
-4 3 -8 9 -8 15 0 5 4 9 8 9 5 0 9 -7 9 -15z m1068 5 c3 -5 1 -10 -4 -10 -6 0
-11 5 -11 10 0 6 2 10 4 10 3 0 8 -4 11 -10z m155 -14 c0 -8 -7 -16 -15 -20
-17 -6 -18 -4 -9 18 8 20 24 21 24 2z m-330 -6 c0 -5 -5 -10 -11 -10 -5 0 -7
5 -4 10 3 6 8 10 11 10 2 0 4 -4 4 -10z m212 -20 c-2 -7 3 -17 10 -21 10 -7 9
-9 -3 -9 -9 0 -19 8 -21 18 -4 15 -13 18 -39 15 -27 -2 -30 -1 -14 6 27 13 71
7 67 -9z m-128 -15 c-4 -8 -8 -15 -10 -15 -2 0 -4 7 -4 15 0 8 4 15 10 15 5 0
7 -7 4 -15z m5146 5 c0 -5 -7 -10 -16 -10 -8 0 -12 5 -9 10 3 6 10 10 16 10 5
0 9 -4 9 -10z m-6110 -6 c0 -8 -19 -13 -24 -6 -3 5 1 9 9 9 8 0 15 -2 15 -3z
m717 -15 c-12 -7 -16 -17 -12 -32 5 -16 4 -18 -3 -8 -8 11 -15 9 -38 -13 -16
-14 -36 -26 -46 -26 -9 0 -20 -4 -23 -10 -3 -5 -12 -10 -18 -9 -7 0 -2 7 11
16 12 8 22 21 22 28 0 7 7 15 15 19 13 4 14 2 5 -14 -15 -28 0 -25 29 6 21 21
22 27 10 35 -10 8 -9 9 8 4 12 -3 24 -1 28 5 3 5 12 10 18 10 7 0 4 -5 -6 -11z
m473 -9 c0 -5 -2 -10 -4 -10 -3 0 -8 5 -11 10 -3 6 -1 10 4 10 6 0 11 -4 11
-10z m3820 0 c0 -5 -7 -10 -16 -10 -8 0 -12 5 -9 10 3 6 10 10 16 10 5 0 9 -4
9 -10z m-4190 -10 c0 -5 -2 -10 -4 -10 -3 0 -8 5 -11 10 -3 6 -1 10 4 10 6 0
11 -4 11 -10z m50 -5 c0 -8 -2 -15 -4 -15 -2 0 -6 7 -10 15 -3 8 -1 15 4 15 6
0 10 -7 10 -15z m402 -17 c-8 -8 -9 -4 -5 13 4 13 8 18 11 10 2 -7 -1 -18 -6
-23z m3785 26 c-3 -3 -12 -4 -19 -1 -8 3 -5 6 6 6 11 1 17 -2 13 -5z m-4739
-29 c0 -14 -4 -25 -9 -25 -5 0 -9 11 -9 25 0 14 4 25 9 25 5 0 9 -11 9 -25z
m5802 15 c0 -5 -4 -10 -10 -10 -5 0 -10 5 -10 10 0 6 5 10 10 10 6 0 10 -4 10
-10z m-5150 -15 c-10 -12 -10 -15 4 -15 9 0 16 -4 16 -10 0 -15 -9 -12 -38 12
-15 11 -19 18 -10 15 10 -3 20 -2 23 3 4 6 9 10 12 10 3 0 0 -7 -7 -15z m350
-6 c-7 -11 -14 -19 -16 -16 -7 7 7 37 17 37 6 0 5 -9 -1 -21z m3577 -1 c-3 -8
-6 -5 -6 6 -1 11 2 17 5 13 3 -3 4 -12 1 -19z m340 -12 c0 -17 -2 -23 -4 -13
-3 9 -9 15 -14 12 -13 -9 -11 -42 4 -49 8 -4 7 -5 -3 -4 -8 1 -23 -2 -33 -7
-10 -4 -21 -5 -24 -1 -4 3 1 6 9 6 17 0 31 26 22 41 -3 5 -15 9 -27 9 -21 1
-21 1 -3 11 14 9 20 8 27 -2 4 -7 11 -10 15 -6 4 3 2 12 -4 19 -8 10 -5 13 12
14 19 1 23 -3 23 -30z m-3862 17 c-11 -3 -23 -10 -27 -17 -5 -7 -8 -7 -8 0 0
16 11 24 34 23 20 -1 20 -1 1 -6z m55 -3 c0 -5 -5 -10 -11 -10 -5 0 -7 5 -4
10 3 6 8 10 11 10 2 0 4 -4 4 -10z m3540 6 c0 -3 -4 -8 -10 -11 -5 -3 -10 -1
-10 4 0 6 5 11 10 11 6 0 10 -2 10 -4z m87 -2 c-3 -3 -12 -4 -19 -1 -8 3 -5 6
6 6 11 1 17 -2 13 -5z m-4678 -34 c11 -33 5 -37 -24 -16 -16 12 -17 16 -6 30
17 21 17 21 30 -14z m368 24 c-3 -3 -12 -4 -19 -1 -8 3 -5 6 6 6 11 1 17 -2
13 -5z m297 -13 c3 -5 -6 -11 -21 -14 -26 -5 -26 -4 -8 9 22 17 22 17 29 5z
m146 5 c0 -11 -19 -15 -25 -6 -3 5 1 10 9 10 9 0 16 -2 16 -4z m45 -6 c3 -5 1
-10 -4 -10 -6 0 -11 5 -11 10 0 6 2 10 4 10 3 0 8 -4 11 -10z m3644 -40 c0 -9
-4 -8 -9 5 -5 11 -9 27 -9 35 0 9 4 8 9 -5 5 -11 9 -27 9 -35z m226 40 c3 -5
2 -10 -4 -10 -5 0 -13 5 -16 10 -3 6 -2 10 4 10 5 0 13 -4 16 -10z m-55 -9 c0
-6 -4 -13 -10 -16 -5 -3 -10 1 -10 9 0 9 5 16 10 16 6 0 10 -4 10 -9z m-4601
-45 c-9 -8 -10 -7 -5 7 3 10 7 24 7 30 1 7 3 4 6 -7 3 -10 -1 -23 -8 -30z
m901 34 c0 -5 -2 -10 -4 -10 -3 0 -8 5 -11 10 -3 6 -1 10 4 10 6 0 11 -4 11
-10z m3800 -5 c0 -9 -9 -15 -25 -15 -14 0 -25 5 -25 11 0 5 4 8 9 4 5 -3 12
-1 16 5 9 15 25 12 25 -5z m-4920 -17 c0 -12 -3 -18 -7 -14 -11 10 -12 36 -2
36 5 0 9 -10 9 -22z m110 6 c0 -2 -9 -8 -20 -14 -17 -9 -20 -8 -20 9 0 14 5
18 20 14 11 -3 20 -7 20 -9z m280 -4 c0 -5 -5 -10 -11 -10 -5 0 -7 5 -4 10 3
6 8 10 11 10 2 0 4 -4 4 -10z m-110 -10 c0 -5 -9 -10 -20 -10 -11 0 -20 -4
-20 -9 0 -5 -7 -11 -15 -15 -25 -9 -17 8 13 26 31 20 42 22 42 8z m4280 0 c0
-5 -16 -10 -36 -10 -19 0 -33 -4 -29 -9 3 -6 -4 -9 -14 -8 -19 1 -19 2 -4 19
17 19 83 25 83 8z m-4760 -4 c0 -3 -4 -8 -10 -11 -5 -3 -10 -1 -10 4 0 6 5 11
10 11 6 0 10 -2 10 -4z m328 -16 c-7 -10 -14 -17 -17 -15 -4 4 18 35 25 35 2
0 -1 -9 -8 -20z m199 14 c-3 -3 -12 -4 -19 -1 -8 3 -5 6 6 6 11 1 17 -2 13 -5z
m41 -25 c3 -12 2 -12 -6 0 -8 11 -11 10 -15 -5 -4 -16 -5 -15 -6 4 -1 25 20
26 27 1z m762 17 c0 -3 -4 -8 -10 -11 -5 -3 -10 -1 -10 4 0 6 5 11 10 11 6 0
10 -2 10 -4z m60 -6 c0 -5 -5 -10 -11 -10 -5 0 -7 5 -4 10 3 6 8 10 11 10 2 0
4 -4 4 -10z m3700 0 c0 -5 -5 -10 -11 -10 -5 0 -7 5 -4 10 3 6 8 10 11 10 2 0
4 -4 4 -10z m-4883 -22 c-3 -8 -6 -5 -6 6 -1 11 2 17 5 13 3 -3 4 -12 1 -19z
m39 -13 c-7 -26 -41 -46 -63 -38 -21 8 -14 26 7 20 15 -4 24 2 36 25 18 35 29
31 20 -7z m231 29 c-3 -3 -12 -4 -19 -1 -8 3 -5 6 6 6 11 1 17 -2 13 -5z
m4298 -3 c3 -5 1 -12 -5 -16 -5 -3 -10 1 -10 9 0 18 6 21 15 7z m66 -18 c-12
-20 -14 -14 -5 12 4 9 9 14 11 11 3 -2 0 -13 -6 -23z m-4871 -5 c0 -19 -2 -20
-10 -8 -13 19 -13 30 0 30 6 0 10 -10 10 -22z m1431 -1 c-10 -9 -11 -8 -5 6 3
10 9 15 12 12 3 -3 0 -11 -7 -18z m3242 2 c-8 -8 -13 -7 -18 2 -5 8 -4 10 3 5
7 -4 12 -2 12 5 0 7 3 9 7 6 4 -4 2 -12 -4 -18z m-4349 -35 l-7 -29 -8 29 c-9
33 -2 53 13 38 5 -5 6 -22 2 -38z m211 36 c3 -5 -1 -10 -10 -10 -9 0 -13 5
-10 10 3 6 8 10 10 10 2 0 7 -4 10 -10z m-165 -15 c7 -9 8 -15 2 -15 -5 0 -12
7 -16 15 -3 8 -4 15 -2 15 2 0 9 -7 16 -15z m4343 -5 c9 -11 13 -20 7 -20 -5
0 -14 9 -20 20 -6 11 -9 20 -8 20 2 0 11 -9 21 -20z m447 -10 c0 -5 -4 -10
-10 -10 -5 0 -10 5 -10 10 0 6 5 10 10 10 6 0 10 -4 10 -10z m-5148 -17 c15
-19 -21 -17 -46 2 -19 14 -19 15 8 13 15 -1 32 -8 38 -15z m481 10 c-7 -2 -21
-2 -30 0 -10 3 -4 5 12 5 17 0 24 -2 18 -5z m4288 -16 c-10 -9 -11 -8 -5 6 3
10 9 15 12 12 3 -3 0 -11 -7 -18z m-80 -4 c13 -16 12 -17 -3 -4 -10 7 -18 15
-18 17 0 8 8 3 21 -13z m53 -4 c-3 -5 -10 -7 -15 -3 -5 3 -7 10 -3 15 3 5 10
7 15 3 5 -3 7 -10 3 -15z m-3887 -11 c-3 -8 -6 -5 -6 6 -1 11 2 17 5 13 3 -3
4 -12 1 -19z m5233 12 c0 -5 -4 -10 -10 -10 -5 0 -10 5 -10 10 0 6 5 10 10 10
6 0 10 -4 10 -10z m-5573 -6 c-3 -3 -12 -4 -19 -1 -8 3 -5 6 6 6 11 1 17 -2
13 -5z m-252 -14 c3 -5 -1 -10 -9 -10 -9 0 -16 5 -16 10 0 6 4 10 9 10 6 0 13
-4 16 -10z m-203 -23 c-2 -10 -5 -16 -6 -15 -1 2 -7 10 -13 18 -10 13 -8 16 6
16 13 0 17 -6 13 -19z m113 3 c3 -5 1 -10 -4 -10 -6 0 -11 5 -11 10 0 6 2 10
4 10 3 0 8 -4 11 -10z m125 0 c0 -5 -4 -10 -10 -10 -5 0 -10 5 -10 10 0 6 5
10 10 10 6 0 10 -4 10 -10z m5350 6 c0 -11 -19 -15 -25 -6 -3 5 1 10 9 10 9 0
16 -2 16 -4z m435 -6 c-3 -5 -10 -10 -16 -10 -5 0 -9 5 -9 10 0 6 7 10 16 10
8 0 12 -4 9 -10z m-161 -15 c-5 -12 -10 -13 -20 -4 -19 15 -18 19 6 19 13 0
18 -5 14 -15z m-5974 -5 c0 -5 -4 -10 -10 -10 -5 0 -10 5 -10 10 0 6 5 10 10
10 6 0 10 -4 10 -10z m44 -23 c7 -6 6 -7 -4 -4 -8 2 -16 12 -17 23 -2 13 -1
15 4 4 3 -8 11 -19 17 -23z m155 -12 c0 -5 -4 -3 -9 5 -5 8 -9 22 -9 30 0 16
17 -16 18 -35z m5461 25 c0 -5 -3 -10 -7 -10 -5 0 -19 -3 -33 -6 l-25 -6 25
15 c31 18 40 20 40 7z m45 0 c3 -5 1 -10 -4 -10 -6 0 -11 5 -11 10 0 6 2 10 4
10 3 0 8 -4 11 -10z m308 -4 c4 -9 -3 -16 -19 -19 -13 -2 -24 0 -24 4 0 5 7 9
15 9 8 0 15 5 15 10 0 14 7 12 13 -4z m-5855 -16 c10 -17 10 -20 -4 -20 -8 0
-13 4 -9 9 9 16 -15 24 -31 10 -12 -10 -13 -9 -8 5 8 22 37 20 52 -4z m5646
-20 c-6 -5 -24 21 -24 34 0 6 6 1 14 -10 8 -10 12 -21 10 -24z m146 30 c0 -5
-4 -10 -10 -10 -5 0 -10 5 -10 10 0 6 5 10 10 10 6 0 10 -4 10 -10z m110 -5
c0 -8 -2 -15 -4 -15 -2 0 -6 7 -10 15 -3 8 -1 15 4 15 6 0 10 -7 10 -15z
m-190 -5 c0 -5 -2 -10 -4 -10 -3 0 -8 5 -11 10 -3 6 -1 10 4 10 6 0 11 -4 11
-10z m-5613 -6 c-3 -3 -12 -4 -19 -1 -8 3 -5 6 6 6 11 1 17 -2 13 -5z m5480 0
c-3 -3 -12 -4 -19 -1 -8 3 -5 6 6 6 11 1 17 -2 13 -5z m-5457 -18 c0 -2 -11
-6 -25 -8 -13 -3 -22 -1 -19 3 5 9 44 13 44 5z m5352 -21 c3 -13 1 -22 -3 -19
-9 5 -13 44 -5 44 2 0 6 -11 8 -25z m341 18 c-7 -2 -21 -2 -30 0 -10 3 -4 5
12 5 17 0 24 -2 18 -5z m-168 -15 c13 -13 -25 -15 -42 -3 -17 13 -16 14 10 11
15 -1 29 -5 32 -8z m-5705 -28 c0 -5 -4 -10 -10 -10 -5 0 -10 5 -10 10 0 6 5
10 10 10 6 0 10 -4 10 -10z m5595 0 c3 -5 -1 -10 -9 -10 -9 0 -16 5 -16 10 0
6 4 10 9 10 6 0 13 -4 16 -10z m338 -21 c-9 -9 -12 -7 -10 9 1 14 5 18 11 12
7 -7 6 -14 -1 -21z m-88 11 c-3 -5 -16 -10 -28 -9 -20 1 -20 2 3 9 14 4 26 8
28 9 2 1 0 -3 -3 -9z m-408 -32 c-3 -7 -5 -2 -5 12 0 14 2 19 5 13 2 -7 2 -19
0 -25z m283 -46 c0 -5 -7 -9 -15 -9 -8 0 -15 4 -15 9 0 4 7 8 15 8 8 0 15 -4
15 -8z m-275 -12 c3 -5 1 -10 -4 -10 -6 0 -11 5 -11 10 0 6 2 10 4 10 3 0 8
-4 11 -10z m-1690 -840 c-4 -12 -9 -19 -12 -17 -3 3 -2 15 2 27 4 12 9 19 12
17 3 -3 2 -15 -2 -27z m195 -29 c0 -6 -4 -13 -10 -16 -5 -3 -10 1 -10 9 0 9 5
16 10 16 6 0 10 -4 10 -9z m-356 -16 c3 -8 12 -15 20 -15 8 0 17 -4 20 -9 3
-5 0 -9 -7 -8 -6 0 -32 -1 -57 -2 l-45 -3 35 -12 c39 -12 51 -36 19 -36 -11 0
-18 4 -15 9 3 5 -11 12 -31 16 -35 6 -37 8 -18 21 10 8 27 14 37 14 11 0 18 7
18 20 0 23 15 27 24 5z m-97 -9 c1 -1 -2 -7 -6 -14 -6 -9 -15 -10 -39 -1 -40
14 -32 30 11 22 18 -3 33 -6 34 -7z m250 -8 c-3 -8 -6 -5 -6 6 -1 11 2 17 5
13 3 -3 4 -12 1 -19z m269 7 c11 -11 12 -19 5 -32 -10 -17 -10 -17 -11 1 0 13
-5 17 -20 13 -13 -3 -20 0 -20 8 0 11 10 20 28 24 2 1 10 -6 18 -14z m-673
-12 c-7 -2 -19 -2 -25 0 -7 3 -2 5 12 5 14 0 19 -2 13 -5z m758 -24 c-5 -13
-10 -19 -10 -12 -1 15 10 45 15 40 3 -2 0 -15 -5 -28z m-1291 5 c0 -8 -5 -12
-10 -9 -6 4 -8 11 -5 16 9 14 15 11 15 -7z m-1203 -16 c-3 -8 -6 -5 -6 6 -1
11 2 17 5 13 3 -3 4 -12 1 -19z m1621 2 c14 0 15 -2 2 -9 -18 -12 -30 -5 -29
17 0 11 3 12 6 5 2 -7 12 -13 21 -13z m72 10 c0 -5 -4 -10 -10 -10 -5 0 -10 5
-10 10 0 6 5 10 10 10 6 0 10 -4 10 -10z m650 -7 c0 -3 -7 -2 -16 1 -10 4 -14
1 -12 -6 3 -7 15 -15 28 -16 17 -3 21 0 17 12 -4 10 -1 16 7 16 8 0 16 -9 19
-20 4 -17 0 -20 -30 -20 -39 0 -68 21 -51 38 10 10 38 6 38 -5z m-2235 -3 c3
-5 -1 -10 -9 -10 -9 0 -16 5 -16 10 0 6 4 10 9 10 6 0 13 -4 16 -10z m1375 3
c0 -5 -12 -16 -25 -26 -24 -17 -24 -17 -18 0 9 26 44 46 43 26z m600 -3 c0 -5
-2 -10 -4 -10 -3 0 -8 5 -11 10 -3 6 -1 10 4 10 6 0 11 -4 11 -10z m357 -22
c-3 -7 -5 -2 -5 12 0 14 2 19 5 13 2 -7 2 -19 0 -25z m-677 12 c0 -5 -4 -10
-10 -10 -5 0 -10 5 -10 10 0 6 5 10 10 10 6 0 10 -4 10 -10z m120 -11 c0 -6
-4 -7 -10 -4 -5 3 -10 11 -10 16 0 6 5 7 10 4 6 -3 10 -11 10 -16z m-940 1 c0
-5 -4 -10 -10 -10 -5 0 -10 5 -10 10 0 6 5 10 10 10 6 0 10 -4 10 -10z m200 0
c0 -5 -4 -10 -10 -10 -5 0 -10 5 -10 10 0 6 5 10 10 10 6 0 10 -4 10 -10z
m-160 -21 c0 -5 -4 -9 -10 -9 -5 0 -10 7 -10 16 0 8 5 12 10 9 6 -3 10 -10 10
-16z m850 6 c0 -8 -4 -15 -10 -15 -5 0 -10 7 -10 15 0 8 5 15 10 15 6 0 10 -7
10 -15z m490 -17 c0 -13 -9 -10 -33 13 l-22 21 28 -13 c15 -7 27 -16 27 -21z
m-2175 -23 c1 -22 0 -34 -2 -27 -3 6 -9 12 -14 12 -6 0 -6 -8 1 -19 15 -29 12
-33 -8 -13 -11 9 -15 21 -11 26 4 5 5 22 2 38 -5 25 -3 29 13 26 14 -2 18 -13
19 -43z m1590 35 c3 -5 1 -10 -4 -10 -6 0 -11 5 -11 10 0 6 2 10 4 10 3 0 8
-4 11 -10z m-685 -22 c0 -18 -2 -20 -9 -8 -6 8 -7 18 -5 22 9 14 14 9 14 -14z
m494 7 c-4 -8 -8 -15 -10 -15 -2 0 -4 7 -4 15 0 8 4 15 10 15 5 0 7 -7 4 -15z
m841 5 c-3 -5 -14 -10 -23 -10 -15 0 -15 2 -2 10 20 13 33 13 25 0z m-1432
-17 c3 -5 -9 -9 -26 -10 -24 -2 -28 0 -17 7 18 12 37 13 43 3z m-82 -30 c13
-16 12 -17 -3 -4 -10 7 -18 15 -18 17 0 8 8 3 21 -13z m78 -57 c-3 -3 -11 5
-18 17 -13 21 -12 21 5 5 10 -10 16 -20 13 -22z m-837 2 c-7 -7 -12 -8 -12 -2
0 14 12 26 19 19 2 -3 -1 -11 -7 -17z m808 8 c0 -3 -4 -8 -10 -11 -5 -3 -10
-1 -10 4 0 6 5 11 10 11 6 0 10 -2 10 -4z m-2095 -29 c67 -38 114 -130 101
-200 -8 -45 -43 -96 -84 -123 -125 -85 -303 13 -302 166 0 32 31 98 60 129 53
54 155 68 225 28z m1930 -166 c206 -98 294 -362 159 -480 -19 -17 -46 -34 -60
-37 -42 -11 -137 2 -180 24 -97 50 -190 185 -201 293 -10 101 26 176 101 210
59 27 111 24 181 -10z m2190 -11 c3 -5 -1 -10 -9 -10 -9 0 -16 5 -16 10 0 6 4
10 9 10 6 0 13 -4 16 -10z m-2775 -517 c36 -97 108 -224 187 -331 l75 -102
-55 -73 c-30 -39 -60 -82 -66 -94 -16 -32 -59 -30 -107 5 -88 65 -232 247
-298 379 -35 69 -36 74 -22 101 8 16 30 40 48 54 58 44 182 117 200 118 11 0
23 -19 38 -57z m3894 -1643 l26 -10 0 -445 0 -445 139 0 c156 0 164 -3 178
-68 13 -61 8 -214 -8 -247 l-14 -30 -306 -3 -305 -2 -25 26 -24 26 -3 591 c-1
350 1 594 7 600 25 25 273 31 335 7z m780 0 l26 -10 0 -445 0 -445 138 0 c75
0 142 -4 148 -8 29 -19 38 -60 38 -167 1 -78 -4 -119 -14 -140 l-15 -30 -306
-3 -305 -2 -25 26 -24 26 -3 591 c-1 350 1 594 7 600 25 25 273 31 335 7z
m-6652 -5 c92 -19 148 -46 202 -95 55 -50 81 -103 96 -192 23 -133 -27 -295
-115 -377 l-43 -39 95 -159 c52 -87 104 -173 115 -191 l21 -33 -55 -53 c-70
-68 -165 -116 -229 -116 -75 0 -94 24 -189 248 -74 172 -85 192 -106 192 l-24
0 0 -205 c0 -202 0 -204 -22 -217 -26 -13 -255 -18 -300 -5 l-28 7 0 609 c0
541 2 611 16 625 13 14 51 16 257 16 171 0 262 -5 309 -15z m1226 -2 c12 -20
315 -1223 310 -1229 -4 -3 -54 -10 -113 -15 -119 -11 -228 0 -254 26 -9 9 -29
68 -46 133 l-30 117 -141 3 -140 3 -30 -123 c-28 -120 -30 -123 -64 -140 -26
-13 -60 -18 -131 -18 -112 0 -159 7 -166 26 -3 8 66 286 153 619 140 533 161
605 179 609 11 2 120 3 243 2 157 -1 225 -4 230 -13z m1061 -18 c20 -41 20
-199 0 -240 -13 -28 -18 -30 -82 -33 l-67 -3 0 -319 0 -319 72 -3 73 -3 13
-40 c16 -48 12 -209 -6 -243 l-13 -22 -322 2 -322 3 -14 30 c-20 41 -20 200 0
240 14 29 17 30 87 33 l72 3 0 319 0 320 -74 0 c-74 0 -74 0 -87 33 -18 43
-18 202 0 245 l14 32 321 -2 321 -3 14 -30z m476 13 c24 -14 56 -68 170 -288
l140 -272 5 283 5 283 25 7 c41 11 244 10 279 -2 l31 -11 0 -604 0 -605 -35
-15 c-40 -16 -230 -19 -285 -4 -33 9 -42 23 -180 281 l-145 271 -5 -270 c-3
-149 -9 -274 -13 -279 -13 -12 -268 -16 -299 -4 l-28 11 0 614 c0 482 3 616
13 620 6 3 75 4 152 3 107 -2 147 -7 170 -19z m1532 -5 c12 -46 8 -245 -5
-270 -12 -22 -17 -23 -177 -23 l-165 0 0 -100 0 -100 109 0 c88 0 111 -3 122
-16 18 -22 19 -220 1 -251 -12 -22 -19 -23 -122 -23 l-110 0 0 -214 c0 -177
-3 -217 -15 -229 -30 -30 -272 -36 -324 -8 l-21 12 0 618 c0 340 3 621 7 624
3 4 161 7 349 7 l344 0 7 -27z m821 10 c12 -20 315 -1223 310 -1229 -4 -3 -54
-10 -113 -15 -118 -11 -228 0 -253 25 -8 8 -29 68 -46 133 l-31 118 -141 3
-141 3 -27 -121 c-34 -149 -38 -152 -172 -158 -110 -5 -183 4 -190 23 -3 8 61
267 142 577 81 310 152 582 157 605 7 30 16 43 31 46 12 3 121 4 244 3 157 -1
225 -4 230 -13z m-3332 -1574 c37 -18 42 -58 14 -123 -18 -42 -23 -47 -43 -41
-90 27 -127 26 -127 -6 0 -13 19 -28 60 -49 122 -62 157 -115 147 -223 -6 -70
-42 -129 -97 -162 -29 -16 -52 -20 -130 -20 -82 0 -101 3 -137 24 -58 33 -69
65 -49 135 9 30 20 57 24 60 5 3 35 -9 67 -25 69 -34 108 -35 113 -2 3 18 -7
27 -55 52 -98 49 -143 115 -143 207 0 81 49 151 126 180 47 18 187 13 230 -7z
m2505 -16 c95 -53 139 -145 139 -288 0 -192 -92 -309 -254 -322 -171 -14 -288
79 -316 249 -23 145 23 283 114 346 65 43 98 52 187 48 63 -2 86 -8 130 -33z
m565 16 c37 -18 42 -58 14 -123 -18 -42 -23 -47 -43 -41 -90 27 -127 26 -127
-6 0 -13 19 -28 60 -49 122 -62 157 -115 147 -223 -6 -70 -42 -129 -97 -162
-49 -28 -207 -29 -263 -1 -48 24 -70 64 -61 114 8 43 32 95 42 90 119 -62 164
-71 170 -31 3 18 -7 27 -46 47 -105 53 -151 117 -152 209 0 84 48 154 126 183
47 18 187 13 230 -7z m-2546 -15 c6 -14 10 -40 10 -59 0 -19 -4 -45 -10 -59
-9 -24 -15 -26 -65 -26 l-55 0 0 -225 c0 -259 8 -240 -103 -240 -49 0 -70 4
-77 15 -5 8 -10 113 -10 233 l0 217 -54 0 c-30 0 -58 4 -61 10 -12 20 -16 106
-6 133 l11 27 205 0 205 0 10 -26z m228 14 c9 -9 12 -72 12 -224 0 -228 -1
-224 53 -224 51 1 52 5 57 237 l5 218 75 3 c41 2 85 0 97 -3 l23 -5 0 -218 c0
-128 -5 -233 -11 -257 -26 -94 -99 -145 -215 -153 -126 -8 -221 35 -266 120
-21 40 -23 58 -26 266 -3 165 -1 226 8 237 16 19 170 21 188 3z m706 -2 c106
-32 165 -118 174 -253 8 -121 -20 -225 -77 -286 -54 -59 -93 -71 -244 -75 -98
-3 -142 0 -152 8 -13 10 -15 59 -15 297 0 177 4 292 10 304 10 17 22 19 134
19 77 0 140 -5 170 -14z m556 -5 c13 -25 13 -82 0 -115 -7 -20 -16 -26 -40
-26 l-30 0 0 -155 0 -155 28 0 c15 0 33 -5 40 -12 13 -13 16 -116 4 -136 -7
-9 -48 -12 -173 -10 l-164 3 -3 63 c-3 73 7 92 49 92 l29 0 0 155 0 155 -35 0
c-41 0 -50 13 -50 80 0 83 -6 80 174 80 148 0 161 -1 171 -19z"/>
<path d="M3934 8450 c-11 -4 -32 -22 -47 -39 -87 -104 2 -254 131 -219 92 25
130 131 76 214 -30 45 -106 66 -160 44z"/>
<path d="M6214 8451 c-11 -5 -33 -23 -47 -41 -49 -58 -31 -172 33 -205 49 -25
104 -20 145 16 66 58 69 143 6 203 -32 31 -98 43 -137 27z"/>
<path d="M3400 8415 c-8 -9 -9 -15 -2 -15 6 0 14 5 17 11 4 6 13 8 21 5 7 -3
16 -1 19 4 10 16 -42 11 -55 -5z"/>
<path d="M3420 8395 c0 -7 30 -13 34 -7 3 4 -4 9 -15 9 -10 1 -19 0 -19 -2z"/>
<path d="M6737 8209 c-182 -43 -312 -227 -292 -414 6 -62 42 -154 72 -187 9
-10 13 -18 10 -18 -9 0 60 -61 102 -90 18 -13 50 -29 70 -36 20 -7 28 -13 19
-14 -22 0 -23 -16 -3 -36 8 -9 15 -21 15 -27 0 -7 -4 -6 -10 3 -11 18 -11 20
-13 -85 -2 -79 6 -95 67 -120 47 -20 85 -13 117 21 23 24 24 32 22 134 l-2
108 25 6 c14 4 35 4 47 1 16 -5 18 -4 8 3 -10 8 -5 14 25 28 57 27 136 111
170 180 26 53 29 69 29 161 0 99 -1 103 -41 180 -31 60 -54 89 -100 126 -93
75 -219 104 -337 76z m178 -260 c116 -102 16 -287 -129 -239 -41 13 -95 71
-98 103 -7 104 48 167 144 167 39 0 54 -6 83 -31z"/>
<path d="M7403 7796 c-59 -27 -73 -65 -73 -203 0 -117 1 -123 27 -153 24 -29
25 -33 10 -42 -25 -13 -53 -71 -38 -76 7 -2 16 -14 21 -27 10 -26 67 -39 130
-29 60 10 97 77 68 123 -9 15 -7 27 10 63 18 37 22 62 21 144 0 54 -5 114 -12
133 -22 64 -100 96 -164 67z"/>
<path d="M3402 7737 c-49 -28 -56 -52 -62 -217 -3 -85 -3 -168 1 -185 5 -20 8
-24 9 -10 1 11 4 15 7 7 2 -6 10 -9 16 -5 7 4 5 -1 -3 -12 -14 -16 -13 -17 8
-11 15 5 22 3 22 -6 0 -7 -11 -14 -25 -14 -14 -1 -25 2 -25 8 0 5 -5 6 -10 3
-18 -11 1 -27 26 -21 18 5 22 3 18 -9 -4 -9 1 -17 11 -21 10 -4 14 -13 10 -23
-5 -13 -4 -13 6 -4 7 7 14 22 16 34 3 19 1 20 -12 9 -9 -7 -18 -10 -21 -7 -9
9 6 27 22 27 8 0 13 4 10 8 -3 5 1 9 9 9 11 0 12 -4 4 -14 -9 -10 -5 -13 20
-13 34 0 108 27 98 36 -3 3 -19 -2 -36 -10 -16 -9 -38 -16 -48 -16 -10 1 0 7
22 15 22 8 53 28 68 45 l28 32 -3 160 -3 160 -33 29 c-26 24 -41 29 -80 29
-26 -1 -57 -6 -70 -13z"/>
<path d="M7080 7526 c0 -3 9 -10 20 -16 11 -6 20 -8 20 -6 0 3 -9 10 -20 16
-11 6 -20 8 -20 6z"/>
<path d="M2139 7309 c-8 -16 -8 -24 1 -33 10 -8 11 -7 8 4 -3 8 -1 23 4 33 5
9 6 17 4 17 -3 0 -10 -9 -17 -21z"/>
<path d="M8125 7285 c0 -13 3 -21 8 -18 4 2 7 10 7 18 0 8 -3 16 -7 18 -5 3
-8 -5 -8 -18z"/>
<path d="M3248 7263 c6 -2 18 -2 25 0 6 3 1 5 -13 5 -14 0 -19 -2 -12 -5z"/>
<path d="M3597 7263 c-4 -3 -7 -11 -7 -17 0 -6 5 -5 12 2 6 6 9 14 7 17 -3 3
-9 2 -12 -2z"/>
<path d="M8141 7251 c-11 -19 -11 -22 0 -16 9 6 11 3 6 -9 -4 -10 -3 -15 3
-11 6 3 10 -4 11 -17 1 -23 1 -23 8 2 4 14 3 28 -2 31 -5 3 -8 9 -7 13 5 22
-9 27 -19 7z"/>
<path d="M6536 7233 c-6 -14 -5 -15 5 -6 7 7 10 15 7 18 -3 3 -9 -2 -12 -12z"/>
<path d="M2698 7223 c7 -3 16 -2 19 1 4 3 -2 6 -13 5 -11 0 -14 -3 -6 -6z"/>
<path d="M3191 7218 c-1 -22 18 -33 32 -19 9 9 8 11 -5 6 -11 -4 -18 0 -21 12
-4 15 -5 16 -6 1z"/>
<path d="M3458 7223 c6 -2 18 -2 25 0 6 3 1 5 -13 5 -14 0 -19 -2 -12 -5z"/>
<path d="M7865 7196 c-33 -35 -43 -69 -36 -123 1 -7 -3 -13 -9 -13 -6 0 -8 -5
-5 -10 4 -6 11 -8 16 -5 5 4 9 2 9 -4 0 -5 -8 -12 -17 -14 -17 -4 -17 -5 0 -6
9 0 17 -5 17 -11 0 -5 5 -10 11 -10 5 0 7 5 3 12 -4 7 -3 8 5 4 6 -4 9 -11 6
-16 -3 -4 2 -13 9 -19 11 -9 19 -9 35 1 15 9 30 10 61 1 22 -5 43 -7 45 -2 3
4 0 9 -7 12 -7 2 -4 3 7 1 22 -3 33 2 53 28 10 12 10 18 1 24 -7 4 -9 3 -6 -3
4 -6 0 -13 -8 -16 -12 -5 -12 -1 2 27 21 44 11 97 -26 138 -22 25 -37 32 -79
36 -50 4 -54 3 -87 -32z"/>
<path d="M3340 7210 c0 -5 11 -12 25 -16 14 -3 25 -10 25 -15 0 -5 8 -9 18 -9
13 0 10 6 -13 25 -31 25 -55 32 -55 15z"/>
<path d="M3670 7204 c0 -8 -4 -12 -10 -9 -5 3 -10 1 -10 -4 0 -6 7 -11 15 -11
8 0 15 9 15 20 0 11 -2 20 -5 20 -3 0 -5 -7 -5 -16z"/>
<path d="M2440 7200 c0 -5 5 -10 11 -10 5 0 7 5 4 10 -3 6 -8 10 -11 10 -2 0
-4 -4 -4 -10z"/>
<path d="M3444 7195 c-19 -14 -18 -14 4 -15 12 0 22 -4 22 -10 0 -5 7 -7 15
-4 20 8 19 24 -1 24 -8 0 -12 5 -9 10 9 15 -8 12 -31 -5z"/>
<path d="M3292 7185 c-7 -8 -24 -15 -37 -15 -14 0 -25 -5 -25 -11 0 -6 12 -9
28 -7 15 2 32 -3 38 -11 7 -8 16 -11 24 -6 10 6 9 11 -6 22 -19 14 -19 15 0
29 14 10 15 14 5 14 -8 -1 -20 -7 -27 -15z"/>
<path d="M3538 7183 c6 -2 18 -2 25 0 6 3 1 5 -13 5 -14 0 -19 -2 -12 -5z"/>
<path d="M3580 7172 c0 -5 7 -9 15 -9 8 0 12 4 9 9 -3 4 -9 8 -15 8 -5 0 -9
-4 -9 -8z"/>
<path d="M6611 7154 c0 -11 3 -14 6 -6 3 7 2 16 -1 19 -3 4 -6 -2 -5 -13z"/>
<path d="M6730 7159 c0 -5 5 -7 10 -4 6 3 10 8 10 11 0 2 -4 4 -10 4 -5 0 -10
-5 -10 -11z"/>
<path d="M3340 7151 c0 -16 18 -22 23 -9 4 10 8 9 17 -2 10 -13 11 -13 7 0 -4
17 -47 27 -47 11z"/>
<path d="M3417 7153 c-4 -3 -7 -11 -7 -17 0 -6 5 -5 12 2 6 6 9 14 7 17 -3 3
-9 2 -12 -2z"/>
<path d="M3520 7150 c-8 -5 -11 -12 -8 -15 4 -4 17 0 30 9 24 17 5 23 -22 6z"/>
<path d="M6705 7140 c3 -5 8 -10 11 -10 2 0 4 5 4 10 0 6 -5 10 -11 10 -5 0
-7 -4 -4 -10z"/>
<path d="M6820 7136 c0 -8 9 -16 19 -19 13 -3 18 -1 14 8 -7 19 -33 27 -33 11z"/>
<path d="M3215 7131 c-3 -5 -1 -12 5 -16 5 -3 10 1 10 9 0 18 -6 21 -15 7z"/>
<path d="M3555 7120 c-3 -6 1 -7 9 -4 18 7 21 14 7 14 -6 0 -13 -4 -16 -10z"/>
<path d="M3595 7119 c-11 -17 1 -21 15 -4 8 9 8 15 2 15 -6 0 -14 -5 -17 -11z"/>
<path d="M2650 7095 c0 -9 11 -21 25 -27 27 -12 36 -44 10 -34 -24 9 -18 -22
7 -35 18 -10 20 -9 15 4 -4 11 1 18 15 23 19 6 18 9 -18 45 -43 42 -54 47 -54
24z"/>
<path d="M6768 7103 c6 -2 18 -2 25 0 6 3 1 5 -13 5 -14 0 -19 -2 -12 -5z"/>
<path d="M6920 7100 c0 -5 5 -10 10 -10 6 0 10 5 10 10 0 6 -4 10 -10 10 -5 0
-10 -4 -10 -10z"/>
<path d="M2124 7086 c-3 -8 -4 -23 -1 -33 3 -12 5 -8 6 10 0 16 5 26 11 22 6
-3 10 -1 10 4 0 16 -20 13 -26 -3z"/>
<path d="M3560 7090 c0 -5 5 -10 10 -10 6 0 10 5 10 10 0 6 -4 10 -10 10 -5 0
-10 -4 -10 -10z"/>
<path d="M7095 7090 c-4 -6 2 -9 14 -7 29 4 39 17 13 17 -11 0 -24 -5 -27 -10z"/>
<path d="M8140 7079 c0 -11 5 -17 10 -14 6 3 10 1 10 -6 0 -7 3 -9 6 -6 4 4 2
13 -4 20 -7 8 -9 17 -5 20 3 4 1 7 -5 7 -7 0 -12 -9 -12 -21z"/>
<path d="M6655 7081 c-3 -5 -1 -12 5 -16 5 -3 10 1 10 9 0 18 -6 21 -15 7z"/>
<path d="M6786 7082 c-4 -7 -2 -12 4 -12 6 0 8 -4 5 -10 -3 -5 1 -10 9 -10 8
0 18 5 21 10 3 6 0 10 -9 10 -8 0 -16 5 -18 12 -3 9 -6 9 -12 0z"/>
<path d="M6865 7080 c3 -5 11 -10 16 -10 6 0 7 5 4 10 -3 6 -11 10 -16 10 -6
0 -7 -4 -4 -10z"/>
<path d="M7173 7080 c-30 -12 -29 -18 2 -12 14 2 25 8 25 13 0 5 -1 9 -2 8 -2
0 -13 -4 -25 -9z"/>
<path d="M2170 7072 c0 -6 -8 -9 -17 -6 -15 5 -16 4 -3 -5 16 -11 40 3 27 16
-4 3 -7 1 -7 -5z"/>
<path d="M2622 7068 c-16 -16 -15 -33 1 -19 8 6 17 8 21 4 4 -4 4 0 0 10 -7
20 -7 20 -22 5z"/>
<path d="M6950 7065 c-10 -13 -9 -15 9 -15 11 0 21 4 21 9 0 18 -18 21 -30 6z"/>
<path d="M6712 7056 c7 -8 15 -12 17 -11 5 6 -10 25 -20 25 -5 0 -4 -6 3 -14z"/>
<path d="M7050 7059 c0 -5 5 -7 10 -4 6 3 10 8 10 11 0 2 -4 4 -10 4 -5 0 -10
-5 -10 -11z"/>
<path d="M3626 7052 c2 -2 -2 -14 -8 -26 -10 -20 -10 -20 8 -4 12 12 15 21 8
27 -6 5 -9 6 -8 3z"/>
<path d="M2173 7035 c-3 -9 -3 -19 1 -22 3 -4 6 1 6 11 0 10 5 14 12 10 7 -4
8 -3 4 4 -10 16 -15 15 -23 -3z"/>
<path d="M7390 7046 c0 -2 7 -7 16 -10 8 -3 12 -2 9 4 -6 10 -25 14 -25 6z"/>
<path d="M7002 7010 c0 -19 2 -27 5 -17 2 9 2 25 0 35 -3 9 -5 1 -5 -18z"/>
<path d="M6930 7020 c0 -5 5 -10 10 -10 6 0 10 5 10 10 0 6 -4 10 -10 10 -5 0
-10 -4 -10 -10z"/>
<path d="M2500 7003 c0 -13 5 -23 10 -23 13 0 13 11 0 30 -8 12 -10 11 -10 -7z"/>
<path d="M7430 7010 c0 -5 5 -10 11 -10 5 0 7 5 4 10 -3 6 -8 10 -11 10 -2 0
-4 -4 -4 -10z"/>
<path d="M7399 6991 c11 -7 10 -11 -5 -20 -18 -11 -18 -12 1 -7 11 3 42 10 68
17 26 6 46 14 43 16 -2 2 -20 0 -40 -5 -22 -6 -38 -7 -42 -1 -3 5 -13 9 -22 9
-14 0 -14 -2 -3 -9z"/>
<path d="M7750 6990 c8 -5 20 -10 25 -10 6 0 3 5 -5 10 -8 5 -19 10 -25 10 -5
0 -3 -5 5 -10z"/>
<path d="M7820 6991 c0 -6 -8 -11 -17 -12 -10 0 -13 -3 -6 -5 18 -8 49 11 34
20 -6 4 -11 2 -11 -3z"/>
<path d="M8065 6990 c-3 -5 -1 -10 4 -10 6 0 11 5 11 10 0 6 -2 10 -4 10 -3 0
-8 -4 -11 -10z"/>
<path d="M2168 6983 c7 -3 16 -2 19 1 4 3 -2 6 -13 5 -11 0 -14 -3 -6 -6z"/>
<path d="M7850 6976 c0 -2 7 -7 16 -10 8 -3 12 -2 9 4 -6 10 -25 14 -25 6z"/>
<path d="M7918 6973 c7 -3 16 -2 19 1 4 3 -2 6 -13 5 -11 0 -14 -3 -6 -6z"/>
<path d="M2154 6954 c23 -16 20 -24 -9 -24 -14 0 -25 -4 -25 -10 0 -11 60 -13
76 -2 13 9 26 54 13 46 -5 -3 -9 -12 -9 -20 0 -8 -4 -14 -10 -14 -5 0 -10 8
-10 18 0 11 -7 18 -21 18 -18 0 -18 -2 -5 -12z"/>
<path d="M7958 6964 c-3 -3 -34 -5 -68 -6 -34 0 -56 -4 -50 -8 7 -4 9 -13 5
-20 -6 -9 -3 -9 14 -1 12 7 26 9 31 6 5 -3 11 -1 15 5 3 5 30 9 60 7 34 -1 59
3 67 11 11 11 8 11 -15 3 -36 -14 -57 -14 -37 -1 13 8 13 10 -1 10 -9 0 -18
-2 -21 -6z"/>
<path d="M7795 6940 c3 -5 8 -10 11 -10 2 0 4 5 4 10 0 6 -5 10 -11 10 -5 0
-7 -4 -4 -10z"/>
<path d="M3527 6923 c-4 -3 -7 -13 -7 -22 1 -13 3 -13 11 2 11 19 8 33 -4 20z"/>
<path d="M7560 6920 c0 -5 7 -7 15 -4 8 4 15 8 15 10 0 2 -7 4 -15 4 -8 0 -15
-4 -15 -10z"/>
<path d="M7650 6915 c0 -8 5 -15 10 -15 6 0 10 7 10 15 0 8 -4 15 -10 15 -5 0
-10 -7 -10 -15z"/>
<path d="M7970 6920 c8 -5 24 -9 35 -9 l20 0 -20 9 c-11 5 -27 9 -35 9 -13 1
-13 0 0 -9z"/>
<path d="M7600 6901 c0 -5 7 -12 16 -15 22 -9 24 -8 18 9 -7 16 -34 21 -34 6z"/>
<path d="M2140 6891 c0 -17 26 -24 47 -12 16 9 16 10 1 11 -9 0 -23 3 -32 6
-9 3 -16 1 -16 -5z"/>
<path d="M7832 6876 c1 -14 6 -23 9 -20 10 6 7 44 -3 44 -4 0 -7 -11 -6 -24z"/>
<path d="M7920 6890 c0 -5 5 -10 11 -10 8 0 8 -4 2 -12 -7 -9 -5 -21 6 -39
l16 -26 0 48 c1 41 -2 49 -17 49 -10 0 -18 -4 -18 -10z"/>
<path d="M8028 6893 c7 -3 16 -2 19 1 4 3 -2 6 -13 5 -11 0 -14 -3 -6 -6z"/>
<path d="M7660 6879 c0 -5 5 -7 10 -4 6 3 10 8 10 11 0 2 -4 4 -10 4 -5 0 -10
-5 -10 -11z"/>
<path d="M8110 6880 c-12 -8 -11 -10 8 -10 12 0 22 5 22 10 0 13 -11 13 -30 0z"/>
<path d="M8075 6870 c-3 -5 -1 -10 4 -10 6 0 11 5 11 10 0 6 -2 10 -4 10 -3 0
-8 -4 -11 -10z"/>
<path d="M7632 6861 c-16 -10 0 -25 38 -36 22 -6 23 -5 10 6 -8 8 -20 19 -25
26 -6 7 -16 9 -23 4z"/>
<path d="M2165 6850 c3 -5 8 -10 11 -10 2 0 4 5 4 10 0 6 -5 10 -11 10 -5 0
-7 -4 -4 -10z"/>
<path d="M7892 6840 c12 -19 28 -27 28 -14 0 7 -27 34 -34 34 -4 0 -1 -9 6
-20z"/>
<path d="M7970 6850 c0 -5 5 -10 10 -10 6 0 10 5 10 10 0 6 -4 10 -10 10 -5 0
-10 -4 -10 -10z"/>
<path d="M8020 6850 c0 -9 39 -25 46 -18 2 3 -7 10 -21 16 -14 6 -25 7 -25 2z"/>
<path d="M2140 6819 c0 -21 16 -26 23 -6 3 7 6 5 6 -5 1 -11 6 -15 15 -12 21
8 9 31 -20 37 -18 3 -24 0 -24 -14z"/>
<path d="M7850 6830 c-13 -8 -12 -10 3 -10 9 0 17 5 17 10 0 12 -1 12 -20 0z"/>
<path d="M7990 6812 c0 -4 9 -8 20 -8 11 0 20 4 20 8 0 4 -9 8 -20 8 -11 0
-20 -4 -20 -8z"/>
<path d="M8062 6803 c-8 -14 -9 -24 -2 -28 12 -7 24 18 18 37 -3 8 -9 5 -16
-9z"/>
<path d="M8090 6806 c0 -24 15 -26 28 -5 11 16 9 19 -8 19 -11 0 -20 -6 -20
-14z"/>
<path d="M7805 6786 c-16 -13 -27 -27 -24 -30 12 -12 59 17 59 36 0 23 1 23
-35 -6z"/>
<path d="M7878 6799 c-10 -5 -18 -17 -18 -25 0 -19 16 -10 30 17 12 22 11 22
-12 8z"/>
<path d="M5833 6723 c-39 -19 -67 -81 -58 -125 4 -16 18 -42 32 -58 21 -25 32
-30 71 -30 29 0 59 8 79 20 65 39 62 142 -6 187 -39 27 -73 28 -118 6z"/>
<path d="M4248 6501 c-29 -26 -33 -35 -32 -80 0 -42 6 -57 30 -82 26 -28 33
-30 78 -26 63 6 106 48 106 103 0 101 -108 151 -182 85z"/>
<path d="M5612 6350 c0 -14 2 -19 5 -12 2 6 2 18 0 25 -3 6 -5 1 -5 -13z"/>
<path d="M5598 6319 c6 -7 12 -29 12 -48 0 -27 -3 -32 -10 -21 -5 8 -10 10
-10 5 0 -6 7 -21 16 -33 10 -15 11 -22 3 -22 -22 0 14 -182 42 -213 37 -40 73
11 58 84 -5 24 -14 70 -20 102 -7 37 -17 61 -28 65 -21 8 -41 28 -35 35 10 10
-6 45 -24 52 -14 5 -15 4 -4 -6z m39 -241 c-3 -8 -6 -5 -6 6 -1 11 2 17 5 13
3 -3 4 -12 1 -19z"/>
<path d="M5651 6264 c0 -11 3 -14 6 -6 3 7 2 16 -1 19 -3 4 -6 -2 -5 -13z"/>
<path d="M4570 6141 c0 -21 -26 -36 -35 -21 -4 6 -11 10 -16 10 -6 0 -8 -4 -4
-10 3 -5 0 -19 -7 -30 -12 -19 -9 -24 21 -52 l33 -30 21 21 c12 11 17 24 13
28 -4 4 -14 -1 -22 -11 -8 -11 -14 -14 -14 -7 0 7 -5 9 -12 5 -7 -4 -8 -3 -4
5 4 6 12 9 17 6 11 -8 11 6 0 24 -8 12 -12 13 -25 1 -9 -7 -19 -11 -21 -8 -3
3 1 10 9 17 16 13 69 4 60 -10 -3 -5 2 -6 10 -3 19 7 21 25 4 22 -9 -2 -12 8
-10 30 1 17 -2 32 -8 32 -5 0 -10 -9 -10 -19z"/>
<path d="M5108 6070 c-41 -12 -59 -35 -61 -81 -1 -34 4 -46 26 -65 33 -28 45
-29 92 -10 27 12 35 22 41 52 4 20 3 48 -2 62 -11 31 -59 52 -96 42z"/>
<path d="M6320 5876 c0 -2 7 -9 15 -16 9 -7 15 -8 15 -2 0 5 -7 12 -15 16 -8
3 -15 4 -15 2z"/>
<path d="M3995 5770 c-16 -18 -16 -20 -2 -20 10 0 17 6 17 14 0 8 6 17 13 19
7 3 7 6 1 6 -6 1 -19 -8 -29 -19z"/>
<path d="M4030 5755 c-7 -9 -8 -15 -2 -15 5 0 12 7 16 15 3 8 4 15 2 15 -2 0
-9 -7 -16 -15z"/>
<path d="M3870 5749 c0 -5 5 -7 10 -4 6 3 10 8 10 11 0 2 -4 4 -10 4 -5 0 -10
-5 -10 -11z"/>
<path d="M5955 5740 c-3 -6 1 -7 9 -4 18 7 21 14 7 14 -6 0 -13 -4 -16 -10z"/>
<path d="M5688 5733 c7 -3 16 -2 19 1 4 3 -2 6 -13 5 -11 0 -14 -3 -6 -6z"/>
<path d="M6062 5710 c7 -10 14 -18 15 -16 6 6 -9 36 -18 36 -5 0 -4 -9 3 -20z"/>
<path d="M3808 5708 c-8 -19 17 -33 28 -16 4 6 3 8 -4 4 -6 -3 -12 2 -14 11
-3 16 -4 17 -10 1z"/>
<path d="M3890 5705 c0 -8 5 -15 10 -15 6 0 10 7 10 15 0 8 -4 15 -10 15 -5 0
-10 -7 -10 -15z"/>
<path d="M4457 5703 c3 -7 8 -13 12 -13 4 0 8 6 8 13 0 8 -6 14 -13 14 -7 0
-10 -6 -7 -14z"/>
<path d="M5397 5701 c3 -12 9 -21 14 -21 14 0 11 16 -5 29 -12 10 -13 8 -9 -8z"/>
<path d="M5858 5695 c-3 -14 -2 -25 2 -25 4 0 10 11 12 25 3 14 2 25 -2 25 -4
0 -10 -11 -12 -25z"/>
<path d="M6090 5710 c0 -5 5 -10 10 -10 6 0 10 5 10 10 0 6 -4 10 -10 10 -5 0
-10 -4 -10 -10z"/>
<path d="M5360 5700 c0 -5 5 -10 11 -10 5 0 7 5 4 10 -3 6 -8 10 -11 10 -2 0
-4 -4 -4 -10z"/>
<path d="M6160 5700 c0 -5 5 -10 11 -10 5 0 7 5 4 10 -3 6 -8 10 -11 10 -2 0
-4 -4 -4 -10z"/>
<path d="M3920 5690 c0 -5 4 -10 9 -10 6 0 13 5 16 10 3 6 -1 10 -9 10 -9 0
-16 -4 -16 -10z"/>
<path d="M4945 5690 c-3 -5 -1 -10 4 -10 6 0 11 5 11 10 0 6 -2 10 -4 10 -3 0
-8 -4 -11 -10z"/>
<path d="M5830 5689 c0 -5 5 -7 10 -4 6 3 10 8 10 11 0 2 -4 4 -10 4 -5 0 -10
-5 -10 -11z"/>
<path d="M5708 5673 c7 -3 16 -2 19 1 4 3 -2 6 -13 5 -11 0 -14 -3 -6 -6z"/>
<path d="M5752 5666 c7 -8 15 -12 17 -11 5 6 -10 25 -20 25 -5 0 -4 -6 3 -14z"/>
<path d="M3921 5655 c0 -11 3 -26 8 -33 6 -11 10 -10 15 4 3 9 4 19 1 22 -3 3
-5 -1 -6 -9 -1 -8 -5 -3 -9 11 -7 21 -8 21 -9 5z"/>
<path d="M4680 5660 c0 -5 5 -10 10 -10 6 0 10 5 10 10 0 6 -4 10 -10 10 -5 0
-10 -4 -10 -10z"/>
<path d="M4920 5660 c0 -5 4 -10 9 -10 6 0 13 5 16 10 3 6 -1 10 -9 10 -9 0
-16 -4 -16 -10z"/>
<path d="M5520 5660 c0 -5 5 -10 10 -10 6 0 10 5 10 10 0 6 -4 10 -10 10 -5 0
-10 -4 -10 -10z"/>
<path d="M6170 5660 c0 -5 5 -10 10 -10 6 0 10 5 10 10 0 6 -4 10 -10 10 -5 0
-10 -4 -10 -10z"/>
<path d="M3860 5650 c0 -5 9 -10 20 -10 11 0 20 5 20 10 0 6 -9 10 -20 10 -11
0 -20 -4 -20 -10z"/>
<path d="M4544 5645 c-5 -12 -9 -13 -20 -4 -12 9 -13 9 -9 -3 7 -17 115 -26
115 -10 0 5 -17 9 -37 8 -25 0 -37 3 -35 12 3 17 -7 15 -14 -3z"/>
<path d="M4618 5653 c7 -3 16 -2 19 1 4 3 -2 6 -13 5 -11 0 -14 -3 -6 -6z"/>
<path d="M4705 5629 c-4 -6 -3 -15 3 -21 6 -6 11 -4 15 6 7 18 -9 31 -18 15z"/>
<path d="M4895 5631 c-6 -11 9 -23 19 -14 9 9 7 23 -3 23 -6 0 -12 -4 -16 -9z"/>
<path d="M4650 5620 c0 -5 7 -10 16 -10 8 0 12 5 9 10 -3 6 -10 10 -16 10 -5
0 -9 -4 -9 -10z"/>
<path d="M3790 5610 c0 -5 5 -10 11 -10 5 0 7 5 4 10 -3 6 -8 10 -11 10 -2 0
-4 -4 -4 -10z"/>
<path d="M4540 5610 c0 -6 5 -10 11 -10 5 0 7 -5 3 -12 -4 -7 -3 -8 4 -4 7 4
12 1 12 -7 0 -8 7 -21 17 -28 17 -15 16 -12 -6 33 -14 27 -41 46 -41 28z"/>
<path d="M3922 5560 c0 -14 2 -19 5 -12 2 6 2 18 0 25 -3 6 -5 1 -5 -13z"/>
<path d="M4611 5560 c0 -8 4 -24 9 -35 5 -13 9 -14 9 -5 0 8 -4 24 -9 35 -5
13 -9 14 -9 5z"/>
<path d="M3707 5501 c-4 -17 -3 -21 5 -13 5 5 8 16 6 23 -3 8 -7 3 -11 -10z"/>
<path d="M6640 5306 c0 -2 7 -6 15 -10 8 -3 15 -1 15 4 0 6 -7 10 -15 10 -8 0
-15 -2 -15 -4z"/>
<path d="M6650 5270 c0 -5 7 -10 15 -10 8 0 15 5 15 10 0 6 -7 10 -15 10 -8 0
-15 -4 -15 -10z"/>
<path d="M3880 5509 c0 -5 5 -7 10 -4 6 3 10 8 10 11 0 2 -4 4 -10 4 -5 0 -10
-5 -10 -11z"/>
<path d="M1720 2615 l0 -136 38 7 c61 11 99 33 116 69 19 40 20 101 3 135 -16
32 -72 60 -119 60 l-38 0 0 -135z"/>
<path d="M2861 2517 c-24 -95 -46 -178 -49 -184 -3 -10 19 -13 88 -13 90 0 92
0 87 23 -3 12 -20 90 -37 172 -18 83 -35 155 -39 162 -3 6 -26 -66 -50 -160z"/>
<path d="M6751 2517 c-24 -95 -46 -178 -49 -184 -3 -10 19 -13 88 -13 90 0 92
0 87 23 -3 12 -20 90 -37 172 -18 83 -35 155 -39 162 -3 6 -26 -66 -50 -160z"/>
<path d="M6047 1309 c-50 -29 -68 -166 -30 -231 37 -63 107 -62 151 2 21 30
23 44 20 107 -3 64 -7 76 -33 103 -30 32 -73 39 -108 19z"/>
<path d="M5060 1176 c0 -79 4 -147 9 -150 18 -11 72 17 86 45 10 18 15 57 15
108 0 69 -3 83 -22 105 -13 13 -38 27 -55 31 l-33 7 0 -146z"/>
</g>
</svg>
